<mxfile host="app.diagrams.net" modified="2023-01-27T13:26:32.107Z" agent="5.0 (Windows NT 10.0; Win64; x64) AppleWebKit/537.36 (KHTML, like Gecko) Chrome/109.0.0.0 Safari/537.36" etag="_0Ut2gkw-O6q1b1TIVLL" version="20.8.11" type="github">
  <diagram id="ekiIWMhbQgw99vEcY1b4" name="ページ1">
    <mxGraphModel dx="683" dy="348" grid="1" gridSize="12" guides="1" tooltips="1" connect="1" arrows="1" fold="1" page="1" pageScale="1" pageWidth="827" pageHeight="1169" math="0" shadow="0">
      <root>
        <mxCell id="0" />
        <mxCell id="1" parent="0" />
        <mxCell id="_AmKDjk0HAf0FIpcLNkh-1" value="" style="rounded=1;whiteSpace=wrap;html=1;fillColor=none;dashed=1;fontSize=12;" parent="1" vertex="1">
          <mxGeometry x="150" y="180" width="330" height="260" as="geometry" />
        </mxCell>
        <mxCell id="_AmKDjk0HAf0FIpcLNkh-2" value="" style="rounded=1;whiteSpace=wrap;html=1;fillColor=none;dashed=1;fontSize=12;" parent="1" vertex="1">
          <mxGeometry x="340" y="320" width="360" height="130" as="geometry" />
        </mxCell>
        <mxCell id="_AmKDjk0HAf0FIpcLNkh-3" value="YuShan2021" style="ellipse;whiteSpace=wrap;html=1;fillColor=default;fontSize=12;" parent="1" vertex="1">
          <mxGeometry x="164" y="200" width="120" height="80" as="geometry" />
        </mxCell>
        <mxCell id="_AmKDjk0HAf0FIpcLNkh-4" value="Alice2021" style="ellipse;whiteSpace=wrap;html=1;fillColor=default;fontSize=12;" parent="1" vertex="1">
          <mxGeometry x="350" y="200" width="120" height="80" as="geometry" />
        </mxCell>
        <mxCell id="_AmKDjk0HAf0FIpcLNkh-5" value="HELIOS base" style="ellipse;whiteSpace=wrap;html=1;fillColor=default;fontSize=12;" parent="1" vertex="1">
          <mxGeometry x="350" y="345" width="120" height="80" as="geometry" />
        </mxCell>
        <mxCell id="_AmKDjk0HAf0FIpcLNkh-6" value="CYRUS" style="ellipse;whiteSpace=wrap;html=1;fillColor=default;fontSize=12;" parent="1" vertex="1">
          <mxGeometry x="164" y="345" width="120" height="80" as="geometry" />
        </mxCell>
        <mxCell id="_AmKDjk0HAf0FIpcLNkh-8" value="" style="endArrow=none;html=1;rounded=0;exitX=0.5;exitY=0;exitDx=0;exitDy=0;entryX=0.5;entryY=1;entryDx=0;entryDy=0;fontSize=12;" parent="1" source="_AmKDjk0HAf0FIpcLNkh-5" target="_AmKDjk0HAf0FIpcLNkh-4" edge="1">
          <mxGeometry width="50" height="50" relative="1" as="geometry">
            <mxPoint x="260" y="320" as="sourcePoint" />
            <mxPoint x="310" y="270" as="targetPoint" />
          </mxGeometry>
        </mxCell>
        <mxCell id="_AmKDjk0HAf0FIpcLNkh-9" value="" style="endArrow=none;html=1;rounded=0;exitX=0;exitY=0;exitDx=0;exitDy=0;entryX=1;entryY=1;entryDx=0;entryDy=0;fontSize=12;" parent="1" source="_AmKDjk0HAf0FIpcLNkh-5" target="_AmKDjk0HAf0FIpcLNkh-3" edge="1">
          <mxGeometry width="50" height="50" relative="1" as="geometry">
            <mxPoint x="280" y="340" as="sourcePoint" />
            <mxPoint x="420" y="300" as="targetPoint" />
          </mxGeometry>
        </mxCell>
        <mxCell id="_AmKDjk0HAf0FIpcLNkh-10" value="" style="endArrow=none;html=1;rounded=0;exitX=0;exitY=0.5;exitDx=0;exitDy=0;entryX=1;entryY=0.5;entryDx=0;entryDy=0;fontSize=12;" parent="1" source="_AmKDjk0HAf0FIpcLNkh-5" target="_AmKDjk0HAf0FIpcLNkh-6" edge="1">
          <mxGeometry width="50" height="50" relative="1" as="geometry">
            <mxPoint x="290" y="350" as="sourcePoint" />
            <mxPoint x="430" y="310" as="targetPoint" />
          </mxGeometry>
        </mxCell>
        <mxCell id="_AmKDjk0HAf0FIpcLNkh-11" value="CYRUS" style="ellipse;whiteSpace=wrap;html=1;fillColor=default;fontSize=12;" parent="1" vertex="1">
          <mxGeometry x="540" y="345" width="120" height="80" as="geometry" />
        </mxCell>
        <mxCell id="_AmKDjk0HAf0FIpcLNkh-12" value="" style="endArrow=none;html=1;rounded=0;exitX=0;exitY=0.5;exitDx=0;exitDy=0;entryX=1;entryY=0.5;entryDx=0;entryDy=0;fontSize=12;" parent="1" source="_AmKDjk0HAf0FIpcLNkh-11" target="_AmKDjk0HAf0FIpcLNkh-5" edge="1">
          <mxGeometry width="50" height="50" relative="1" as="geometry">
            <mxPoint x="410.0000000000002" y="570" as="sourcePoint" />
            <mxPoint x="570" y="550" as="targetPoint" />
          </mxGeometry>
        </mxCell>
        <mxCell id="_AmKDjk0HAf0FIpcLNkh-13" value="学習データ" style="text;html=1;strokeColor=default;fillColor=default;align=center;verticalAlign=middle;whiteSpace=wrap;rounded=0;fontSize=12;" parent="1" vertex="1">
          <mxGeometry x="160" y="160" width="80" height="30" as="geometry" />
        </mxCell>
        <mxCell id="_AmKDjk0HAf0FIpcLNkh-15" value="テストデータ" style="text;html=1;strokeColor=default;fillColor=default;align=center;verticalAlign=middle;whiteSpace=wrap;rounded=0;fontSize=12;" parent="1" vertex="1">
          <mxGeometry x="590" y="300" width="100" height="30" as="geometry" />
        </mxCell>
        <mxCell id="_AmKDjk0HAf0FIpcLNkh-16" value="10試合" style="text;html=1;strokeColor=none;fillColor=none;align=center;verticalAlign=middle;whiteSpace=wrap;rounded=0;fontSize=12;labelBackgroundColor=default;labelBorderColor=default;" parent="1" vertex="1">
          <mxGeometry x="380" y="290" width="60" height="30" as="geometry" />
        </mxCell>
        <mxCell id="_AmKDjk0HAf0FIpcLNkh-17" value="10試合" style="text;html=1;strokeColor=none;fillColor=none;align=center;verticalAlign=middle;whiteSpace=wrap;rounded=0;fontSize=12;labelBackgroundColor=default;labelBorderColor=default;horizontal=1;spacing=2;" parent="1" vertex="1">
          <mxGeometry x="284" y="290" width="50" height="30" as="geometry" />
        </mxCell>
        <mxCell id="_AmKDjk0HAf0FIpcLNkh-18" value="10試合" style="text;html=1;strokeColor=none;fillColor=none;align=center;verticalAlign=middle;whiteSpace=wrap;rounded=0;fontSize=12;labelBackgroundColor=default;labelBorderColor=default;" parent="1" vertex="1">
          <mxGeometry x="284" y="370" width="60" height="30" as="geometry" />
        </mxCell>
        <mxCell id="_AmKDjk0HAf0FIpcLNkh-19" value="1試合" style="text;html=1;strokeColor=none;fillColor=none;align=center;verticalAlign=middle;whiteSpace=wrap;rounded=0;fontSize=12;labelBackgroundColor=default;labelBorderColor=default;" parent="1" vertex="1">
          <mxGeometry x="480" y="370" width="60" height="30" as="geometry" />
        </mxCell>
      </root>
    </mxGraphModel>
  </diagram>
</mxfile>
